<svg height="202.108" width="202.108" xmlns="http://www.w3.org/2000/svg">
  <g>
    <title>Layer 1</title>
    <g id="svg_1">
      <g id="svg_2">
        <g id="svg_3">
          <path
            d="m179.531006,16.187v-16.187h-7.333008v16.184h-26.393997v-16.184h-7.328995v16.184h-29.450005v-16.184h-7.329002v16.184h-30.568001v-16.184h-7.328999v16.184h-29.321999v-16.184h-7.329v16.184h-26.119001v185.924994h200.051002v-185.921993h-21.548996l0,0zm14.898987,179.271999h-186.740993v-131.268997h186.740993v131.268997l0,0zm0,-137.910999h-186.740993v-34.711h19.454999v16.863001h7.329v-16.863001h29.321999v16.863001h7.329002v-16.863001h30.567001v16.863001h7.328995v-16.863001h29.450005v16.863001h7.328995v-16.863001h26.393997v16.863001h7.333008v-16.863001h14.899002v34.711h0.00499l0,0z"
            fill="#2196f3" id="svg_4"/>
        </g>
        <g id="svg_5">
          <polygon fill="#2196f3" id="svg_6" points="152.833,103.117 147.941,97.667 93.796,146.225 61.919,113.883 56.705,119.036      93.474,156.346    "/>
        </g>
      </g>
    </g>
    <g id="svg_7"/>
    <g id="svg_8"/>
    <g id="svg_9"/>
    <g id="svg_10"/>
    <g id="svg_11"/>
    <g id="svg_12"/>
    <g id="svg_13"/>
    <g id="svg_14"/>
    <g id="svg_15"/>
    <g id="svg_16"/>
    <g id="svg_17"/>
    <g id="svg_18"/>
    <g id="svg_19"/>
    <g id="svg_20"/>
    <g id="svg_21"/>
  </g>
</svg>
