<svg width="199.754" height="199.754" xmlns="http://www.w3.org/2000/svg">
 <g>
  <title>Layer 1</title>
  <g id="svg_1">
   <g id="svg_2">
    <g id="svg_3">
     <g id="svg_4">
      <path id="svg_5" fill="#2196f3" d="m199.753998,173.203995h-199.753998v-130.140995h67.253998l14.307999,-16.513h36.998001l16.513,16.513h64.681c0,0 0,130.140995 0,130.140995zm-193.146998,-6.599991h186.547999v-116.942005h-60.819l-16.513,-16.513h-31.239998l-14.305,16.513h-63.671v116.942005l0,0z"/>
     </g>
    </g>
    <g id="svg_6">
     <g id="svg_7">
      <path id="svg_8" fill="#2196f3" d="m99.878998,154.235992c-24.278999,0 -44.030998,-19.759003 -44.030998,-44.034004s19.754997,-44.027 44.030998,-44.027c24.272003,0 44.027008,19.755005 44.027008,44.027c0.002991,24.279015 -19.756004,44.034004 -44.027008,44.034004zm0,-81.450989c-20.636002,0 -37.427998,16.784996 -37.427998,37.419998c0,20.638992 16.791996,37.427994 37.427998,37.427994s37.423996,-16.787994 37.423996,-37.427994c0,-20.635002 -16.784996,-37.419998 -37.423996,-37.419998z"/>
     </g>
    </g>
    <g id="svg_9">
     <g id="svg_10">
      <rect id="svg_11" fill="#2196f3" height="7.709" width="18.71" y="61.769" x="19.784"/>
     </g>
    </g>
   </g>
  </g>
  <g id="svg_12"/>
  <g id="svg_13"/>
  <g id="svg_14"/>
  <g id="svg_15"/>
  <g id="svg_16"/>
  <g id="svg_17"/>
  <g id="svg_18"/>
  <g id="svg_19"/>
  <g id="svg_20"/>
  <g id="svg_21"/>
  <g id="svg_22"/>
  <g id="svg_23"/>
  <g id="svg_24"/>
  <g id="svg_25"/>
  <g id="svg_26"/>
 </g>
</svg>