<svg height="196.207" width="196.207" xmlns="http://www.w3.org/2000/svg">
  <g>
    <title>Layer 1</title>
    <g id="svg_1">
      <path
        d="m184.496994,86.394997h-74.676003v-74.686996c0,-6.474 -5.232002,-11.706 -11.717003,-11.706c-6.480995,0 -11.716995,5.236 -11.716995,11.706v74.686996h-74.669993c-6.488,0 -11.717,5.240005 -11.717,11.710007c0,6.466995 5.232,11.702995 11.717,11.702995h74.666003v74.686996c0,6.473999 5.238998,11.710007 11.716995,11.710007c6.487999,0 11.717003,-5.238998 11.717003,-11.710007v-74.682999h74.679993c6.481003,0 11.710007,-5.236 11.710007,-11.702995c0,-6.473999 -5.231995,-11.714005 -11.710007,-11.714005z"
        fill="#2196f3" id="svg_2"/>
    </g>
    <g id="svg_3"/>
    <g id="svg_4"/>
    <g id="svg_5"/>
    <g id="svg_6"/>
    <g id="svg_7"/>
    <g id="svg_8"/>
    <g id="svg_9"/>
    <g id="svg_10"/>
    <g id="svg_11"/>
    <g id="svg_12"/>
    <g id="svg_13"/>
    <g id="svg_14"/>
    <g id="svg_15"/>
    <g id="svg_16"/>
    <g id="svg_17"/>
  </g>
</svg>
